<svg width="193" height="185" viewBox="0 0 193 185" fill="none" xmlns="http://www.w3.org/2000/svg">
<g filter="url(#filter0_d)">
<path d="M135 16L189 158H79L135 16Z" fill="white"/>
<path d="M135 16L189 158H79L135 16Z" fill="url(#paint0_linear)"/>
<path d="M135 16L189 158H79L135 16Z" fill="url(#paint1_linear)"/>
<path d="M79.7347 157.5L134.992 17.3844L188.275 157.5H79.7347Z" stroke="black"/>
</g>
<g filter="url(#filter1_d)">
<path d="M72.5 0.5L137 177H4L72.5 0.5Z" fill="white"/>
<path d="M72.5 0.5L137 177H4L72.5 0.5Z" fill="url(#paint2_linear)"/>
<path d="M4.73039 176.5L72.4859 1.91821L136.285 176.5H4.73039Z" stroke="black"/>
</g>
<defs>
<filter id="filter0_d" x="75" y="16" width="118" height="150" filterUnits="userSpaceOnUse" color-interpolation-filters="sRGB">
<feFlood flood-opacity="0" result="BackgroundImageFix"/>
<feColorMatrix in="SourceAlpha" type="matrix" values="0 0 0 0 0 0 0 0 0 0 0 0 0 0 0 0 0 0 127 0"/>
<feOffset dy="4"/>
<feGaussianBlur stdDeviation="2"/>
<feColorMatrix type="matrix" values="0 0 0 0 0 0 0 0 0 0 0 0 0 0 0 0 0 0 0.25 0"/>
<feBlend mode="normal" in2="BackgroundImageFix" result="effect1_dropShadow"/>
<feBlend mode="normal" in="SourceGraphic" in2="effect1_dropShadow" result="shape"/>
</filter>
<filter id="filter1_d" x="0" y="0.5" width="141" height="184.5" filterUnits="userSpaceOnUse" color-interpolation-filters="sRGB">
<feFlood flood-opacity="0" result="BackgroundImageFix"/>
<feColorMatrix in="SourceAlpha" type="matrix" values="0 0 0 0 0 0 0 0 0 0 0 0 0 0 0 0 0 0 127 0"/>
<feOffset dy="4"/>
<feGaussianBlur stdDeviation="2"/>
<feColorMatrix type="matrix" values="0 0 0 0 0 0 0 0 0 0 0 0 0 0 0 0 0 0 0.25 0"/>
<feBlend mode="normal" in2="BackgroundImageFix" result="effect1_dropShadow"/>
<feBlend mode="normal" in="SourceGraphic" in2="effect1_dropShadow" result="shape"/>
</filter>
<linearGradient id="paint0_linear" x1="134" y1="17" x2="134" y2="158" gradientUnits="userSpaceOnUse">
<stop stop-color="white"/>
<stop offset="1" stop-color="white" stop-opacity="0"/>
</linearGradient>
<linearGradient id="paint1_linear" x1="134" y1="17" x2="134" y2="158" gradientUnits="userSpaceOnUse">
<stop offset="0.411458" stop-color="#6E95EC"/>
<stop offset="0.546875"/>
<stop offset="0.682292" stop-color="#6E95EC" stop-opacity="0.91"/>
<stop offset="0.989583" stop-color="white"/>
</linearGradient>
<linearGradient id="paint2_linear" x1="70.5" y1="-2.00001" x2="70.5" y2="177" gradientUnits="userSpaceOnUse">
<stop offset="0.416667" stop-color="#6E95EC" stop-opacity="0.9958"/>
<stop offset="0.53125"/>
<stop offset="0.65625" stop-color="#6E95EC"/>
<stop offset="0.96875" stop-color="white"/>
</linearGradient>
</defs>
</svg>
