<?xml version="1.0" encoding="iso-8859-1"?>
<!-- Generator: Adobe Illustrator 19.0.0, SVG Export Plug-In . SVG Version: 6.00 Build 0)  -->
<svg version="1.1" id="Layer_1" xmlns="http://www.w3.org/2000/svg" xmlns:xlink="http://www.w3.org/1999/xlink" x="0px" y="0px"
	 viewBox="0 0 502 502" style="enable-background:new 0 0 502 502;" xml:space="preserve">
<g>
	<g>
		<g>
			<path d="M428.483,73.516C381.076,26.108,318.045,0,251,0c-50.827,0-99.781,15.117-141.57,43.716
				c-40.792,27.917-72.205,66.776-90.845,112.378C6.253,186.264,0,218.195,0,251c0,32.804,6.252,64.733,18.583,94.903
				c0.001,0.002,0.002,0.004,0.003,0.007c18.64,45.599,50.052,84.457,90.842,112.373C151.218,486.883,200.172,502,251,502
				c67.045,0,130.076-26.108,177.483-73.516C475.892,381.076,502,318.044,502,251S475.892,120.924,428.483,73.516z M20,251
				c0-28.244,5.033-55.778,14.967-81.932l-0.003-0.007c26.755-3.744,48.907-12.37,70.374-20.738
				C133.469,137.357,160.04,127,196.5,127c68.374,0,124,55.626,124,124s-55.626,124-124,124c-36.5,0-63.042-10.355-91.142-21.319
				c-21.46-8.373-43.605-17.004-70.396-20.746l0.003-0.007C25.032,306.774,20,279.243,20,251z M251,482
				c-88.164,0-167.31-49.318-206.372-127.098c19.072,3.994,35.892,10.556,53.46,17.411C126.676,383.467,156.237,395,196.5,395
				c79.401,0,144-64.598,144-144s-64.599-144-144-144c-40.22,0-69.811,11.534-98.426,22.689
				c-17.571,6.849-34.393,13.406-53.442,17.401C83.698,69.319,162.843,20,251,20c127.374,0,231,103.626,231,231S378.374,482,251,482
				z"/>
			<path d="M320.271,48.749c-5.218-1.804-10.914,0.965-12.719,6.184c-1.805,5.22,0.964,10.914,6.184,12.718
				C392.249,94.792,445,168.875,445,252c0,5.523,4.478,10,10,10c5.522,0,10-4.477,10-10C465,160.354,406.838,78.673,320.271,48.749z
				"/>
			<path d="M436.347,338.142c-4.894-2.565-10.936-0.675-13.499,4.217c-13.587,25.934-33.229,48.885-56.805,66.371
				c-4.437,3.29-5.365,9.553-2.075,13.989c1.963,2.646,4.981,4.043,8.04,4.043c2.07,0,4.159-0.641,5.949-1.969
				c25.98-19.27,47.63-44.565,62.607-73.153C443.127,346.749,441.239,340.705,436.347,338.142z"/>
		</g>
	</g>
</g>
<g>
</g>
<g>
</g>
<g>
</g>
<g>
</g>
<g>
</g>
<g>
</g>
<g>
</g>
<g>
</g>
<g>
</g>
<g>
</g>
<g>
</g>
<g>
</g>
<g>
</g>
<g>
</g>
<g>
</g>
</svg>
