<svg id="Capa_1" data-name="Capa 1" xmlns="http://www.w3.org/2000/svg" viewBox="0 0 197.58 237.79"><defs><style>.cls-1{fill:#231f20;}.cls-2{fill:#c8ebfb;}.cls-3{fill:#7ac38f;}.cls-4{fill:#91d3c9;}.cls-5{fill:#b5daa1;}</style></defs><title>Favicon_Icon</title><polygon class="cls-1" points="182.32 125.47 182.3 125.47 182.3 123.47 182.32 125.47"/><path class="cls-2" d="M206.54,61c-2.51,1.77-7.15,4.82-18,3.16,0,0,4.33-1.42,5.35-4.52s-1.25-4.21-1.25-4.21c-2.5-.12-19.37-1.4-19.37-1.4C159,50.78,140.67,52.7,133.41,53S120,57.08,112.46,66.25c-6.83,8.32-21.69,16.69-32.69,27.22-2,1.94-9.32,11.37-12.33,15.64-4.05,5.76-15.07,17.15-27.22,38.86-6.9,12.33-16.77,32-20.9,45.24,7.75-31.5,23-76.88,33.49-87.39.32-.32.65-.65,1-1a.8.8,0,0,1,.09-.11c14.5-14.38,45.62-43.25,55.39-54.18,10-11.21,14.8-12.41,21.22-12.41h28.07s9.37.17,14.84,3,31.35,15.88,31.35,15.88a6.83,6.83,0,0,1,2.33,2A1.39,1.39,0,0,1,206.54,61Z" transform="translate(-15.3 -28.05)"/><path class="cls-1" d="M20.27,193.5,18.35,193c7.33-29.8,22.65-76.76,33.76-87.86l.95-.93.13-.15c5.25-5.21,12.65-12.28,20.47-19.77,13.44-12.85,28.67-27.42,34.88-34.37,9.75-10.9,14.65-12.74,22-12.74h28.07c.41,0,9.69.21,15.31,3.15C179.28,43.15,205,56,205.22,56.17A7.61,7.61,0,0,1,208,58.52a2.38,2.38,0,0,1-.84,3.34c-2.35,1.65-7.23,5.09-18.73,3.33l-4.11-.63,4-1.31s3.87-1.31,4.71-3.88c.59-1.83-.24-2.65-.6-2.91-3.16-.18-18.48-1.34-19.15-1.39L173,55c-11.76-2.72-26.41-1.84-35.16-1.31-1.73.1-3.24.2-4.44.24-7,.25-12.89,4-20.21,12.91-3.77,4.6-9.93,9.2-16.45,14.07A174.86,174.86,0,0,0,80.46,94.19c-2,1.87-9.24,11.29-12.2,15.5-1,1.47-2.48,3.27-4.32,5.53a220.66,220.66,0,0,0-22.85,33.24C34,161.05,24.36,180.41,20.27,193.5Zm34.21-87.94-1,1c-8.12,8.12-20,39.54-28.62,69.65,4.5-10.1,10-20.73,14.45-28.69a222.45,222.45,0,0,1,23-33.52c1.81-2.24,3.24-4,4.24-5.43C69.69,104.17,77,94.72,79.08,92.75a176.35,176.35,0,0,1,16.51-13.4c6.42-4.79,12.48-9.32,16.1-13.73,7.63-9.28,14.11-13.36,21.68-13.64,1.19,0,2.67-.13,4.39-.24,8.84-.53,23.63-1.43,35.66,1.34,1.23.09,16.9,1.28,19.27,1.4h.21l.19.09c1,.52,2.76,2.33,1.75,5.41a7.35,7.35,0,0,1-2.92,3.59c8.4.62,12.14-2,14-3.36h0c.47-.33.39-.48.26-.7A5.67,5.67,0,0,0,204.31,58c-.25-.12-25.94-13-31.35-15.88-5.2-2.72-14.3-2.92-14.39-2.92h-28c-5.85,0-10.43.84-20.48,12.07-6.26,7-20.87,21-35,34.48-7.82,7.48-15.21,14.55-20.45,19.74l-.08.16Z" transform="translate(-15.3 -28.05)"/><path class="cls-3" d="M193.89,59.69c-1,3.1-5.35,4.52-5.35,4.52l-.12.06-.4.18-.55.25-.34.14-.11,0c-2.33.88-7.37,2.28-15.37,2-11.5-.39-29.48,6.4-29.48,6.4s-12.07,5.19-15.51,11-15.57,21.53-17.15,26.16c-2.51,7.27-4.36,25.79-14.78,39.06a14.06,14.06,0,0,0-2.82,6.23c-.86,4.89-2.65,13.64-5.19,19.48-2.2,5.07,1.5,21.41,7.2,35.22,7.46,18.09,9.2,38.05-5.26,48.84-6.7,5-16.12,4.87-21.61,4.49,0,0-57-12-50.18-59.82a0,0,0,0,1,0,0c.69-3.3,1.51-6.87,2.44-10.67l0-.08c4.13-13.26,14-32.91,20.9-45.24,12.15-21.7,23.17-33.09,27.22-38.86,3-4.27,10.3-13.7,12.33-15.64,11-10.53,25.86-18.9,32.69-27.22,7.54-9.17,13.69-13,20.95-13.27s25.62-2.2,39.86,1.09c0,0,16.88,1.28,19.37,1.4C192.64,55.48,194.89,56.6,193.89,59.69Z" transform="translate(-15.3 -28.05)"/><path class="cls-1" d="M71.36,265q-2.11,0-4.39-.16l-.14,0a90.49,90.49,0,0,1-28-12.13C21,240.69,13,223.86,15.85,204v-.41l.09-.09c.68-3.21,1.48-6.71,2.38-10.41l.07-.2c4.1-13.18,13.86-32.68,21-45.36a222.5,222.5,0,0,1,23-33.52c1.81-2.24,3.24-4,4.24-5.43C69.69,104.17,77,94.72,79.08,92.75a176.5,176.5,0,0,1,16.51-13.4c6.42-4.79,12.48-9.32,16.1-13.73,7.63-9.28,14.11-13.36,21.68-13.64,1.19,0,2.67-.13,4.39-.24,8.84-.53,23.63-1.43,35.66,1.34,1.23.09,16.9,1.28,19.27,1.4h.21l.19.09c1,.52,2.76,2.33,1.75,5.41h0c-1.1,3.34-5.28,4.91-5.91,5.13l-1.52.67c-2.41.91-7.6,2.37-15.79,2.1-11.14-.37-28.92,6.27-29.1,6.33s-11.77,5.12-15,10.61c-1.36,2.33-4.07,6.17-6.94,10.23-4.32,6.12-9.21,13.07-10.13,15.74-.61,1.78-1.2,4.3-1.88,7.23-2,8.76-5.11,22-13.06,32.12a13,13,0,0,0-2.62,5.78c-.85,4.79-2.66,13.72-5.26,19.71-2,4.49,1.35,20.26,7.21,34.44,9.19,22.29,7.15,40.52-5.58,50C84.89,263.36,79,265,71.36,265Zm-4.18-2.15c9.3.65,16.13-.76,20.87-4.29,7-5.24,17-18.4,4.93-47.66-5.47-13.24-9.65-30.33-7.19-36s4.3-14.55,5.13-19.26a15,15,0,0,1,3-6.67c7.67-9.77,10.69-22.75,12.69-31.34.69-3,1.29-5.56,1.94-7.43,1-2.94,5.78-9.7,10.39-16.24,2.84-4,5.53-7.84,6.85-10.09,3.56-6.06,15.47-11.23,16-11.45.78-.3,18.33-6.88,29.91-6.48,7.84.26,12.75-1.11,15-2l1.57-.69s3.87-1.31,4.71-3.88c.59-1.83-.24-2.66-.6-2.91-3.16-.18-18.48-1.34-19.15-1.39L173,55c-11.76-2.72-26.41-1.84-35.16-1.31-1.73.1-3.24.2-4.44.24-7,.25-12.89,4-20.21,12.91-3.77,4.6-9.93,9.2-16.45,14.07A174.86,174.86,0,0,0,80.46,94.19c-2,1.87-9.24,11.29-12.2,15.5-1,1.47-2.48,3.27-4.32,5.53a220.7,220.7,0,0,0-22.85,33.24c-7.05,12.59-16.74,31.95-20.82,45l0,.1c-.91,3.72-1.71,7.24-2.39,10.46v.06C15.06,223.53,22.5,239.3,39.94,251A88.34,88.34,0,0,0,67.18,262.81Z" transform="translate(-15.3 -28.05)"/><path class="cls-4" d="M211.64,55a8,8,0,0,1-4.55,4,6.83,6.83,0,0,0-2.33-2s-25.88-13-31.35-15.88-14.84-3-14.84-3H130.51c-6.43,0-11.21,1.2-21.22,12.41-9.77,10.93-40.89,39.8-55.39,54.18,1.59-2,24.14-30.36,31.23-40.09A103.06,103.06,0,0,1,99,48.91s15.3-13.35,19.82-17.43S133,29.69,133,29.69s9.86,2,26.7,3.91,25,4.55,25,4.55l22.64,11.44S213.09,52,211.64,55Z" transform="translate(-15.3 -28.05)"/><path class="cls-1" d="M54.6,105.45l-1.48-1.34c1.73-2.13,24.14-30.37,31.2-40a103.1,103.1,0,0,1,14-15.9c.15-.13,15.35-13.39,19.81-17.42,4.83-4.39,14.68-2.12,15.1-2,.07,0,10,2,26.58,3.89,16.76,1.85,24.86,4.48,25.2,4.59l.14.06L207.78,48.7c.34.14,3.93,1.68,4.87,4.13a3.27,3.27,0,0,1-.1,2.63A9,9,0,0,1,207.42,60l-.77.25-.42-.7A5.74,5.74,0,0,0,204.31,58c-.25-.12-25.94-13-31.36-15.88-5.19-2.72-14.3-2.92-14.4-2.92h-28c-5.85,0-10.43.84-20.48,12.07-6.26,7-20.87,21-35,34.48C67.22,93.19,59.83,100.25,54.6,105.45ZM127,30c-2.67,0-5.66.46-7.54,2.17-4.47,4-19.68,17.31-19.84,17.45a103.16,103.16,0,0,0-13.7,15.57c-4.27,5.85-14.12,18.46-21.66,28l9.39-9c13.44-12.85,28.67-27.42,34.88-34.37,9.75-10.9,14.65-12.74,22-12.74h28.07c.41,0,9.69.21,15.31,3.15C179.28,43.15,205,56,205.22,56.17a8.89,8.89,0,0,1,2.21,1.64,6.8,6.8,0,0,0,3.31-3.21h0a1.26,1.26,0,0,0,0-1.06c-.54-1.4-3-2.69-3.83-3L184.3,39.08c-.82-.26-9-2.74-24.73-4.48-16.69-1.86-26.69-3.91-26.79-3.93A28.51,28.51,0,0,0,127,30Z" transform="translate(-15.3 -28.05)"/><path class="cls-5" d="M208.82,158.08c-3.28-2-11.58-4.1-20.24,3.47-8,7-14,13.42-16.38,17.45a6.34,6.34,0,0,1-1.6,1.79c-1.6,1.2-4.61,3.24-7.32,3.75a185.08,185.08,0,0,0-19,4.1c-3.11.89-10.42-1.68-13.44-2.85-5.13-2-11.25-9-11.25-9-4-6.26-7.44-22.66-7.31-26.46.18-5.19.72-11.94,2.54-14.86s6.21-21.7,5.07-41.11h0c-4.47,6.34-9.42,13.35-10.4,16.19-2.51,7.27-4.36,25.79-14.78,39.06a14.06,14.06,0,0,0-2.82,6.23c-.86,4.89-2.65,13.64-5.19,19.48-2.2,5.07,1.5,21.41,7.2,35.22,7.46,18.09,9.2,38.05-5.26,48.84-6.7,5-16.12,4.87-21.61,4.49,0,0,16.06,3.19,37.28-1.53,9.23-2,17.28-10.19,23.3-15a55,55,0,0,0,5.53-5.19c7.26-7.72,25.09-21,25.09-21s24.09-13.7,30.24-21.61S209,168.3,209.82,167.21,212.1,160.1,208.82,158.08Z" transform="translate(-15.3 -28.05)"/><path class="cls-1" d="M80.92,265.84a81.18,81.18,0,0,1-14.08-1.06l.26-2c9.34.66,16.19-.75,20.94-4.29,7-5.24,17-18.4,4.93-47.66-5.47-13.24-9.65-30.33-7.19-36s4.3-14.56,5.13-19.26a15,15,0,0,1,3-6.67c7.67-9.77,10.69-22.75,12.69-31.34.69-3,1.29-5.56,1.94-7.43,1-2.94,5.78-9.7,10.39-16.24l.52-.74,1.39.3.06.76c1.12,19-3.08,38.29-5.22,41.7-1.32,2.12-2.13,6.95-2.39,14.36-.13,3.65,3.28,19.72,7.11,25.83.58.66,6.21,6.9,10.81,8.72s10.46,3.49,12.8,2.82a167.44,167.44,0,0,1,17.32-3.81l1.75-.31c2.5-.47,5.4-2.43,6.9-3.56a5.33,5.33,0,0,0,1.35-1.5c2.41-4.13,8.45-10.59,16.58-17.69,8.85-7.73,17.62-5.88,21.42-3.57h0a5.35,5.35,0,0,1,2.36,3.7,10.71,10.71,0,0,1-1.08,6.87c-.18.24-1.3,2-2.72,4.25-4.53,7.14-14,22-18.62,28-6.11,7.86-28.9,20.93-30.48,21.83-1,.78-18,13.48-24.91,20.85a55.88,55.88,0,0,1-5.63,5.29c-1.08.87-2.22,1.85-3.43,2.87-5.56,4.74-12.47,10.63-20.28,12.37A109.43,109.43,0,0,1,80.92,265.84Zm38.13-168.6c-3.88,5.52-7.79,11.21-8.6,13.57-.61,1.78-1.2,4.3-1.88,7.23-2,8.76-5.11,22-13.06,32.12a13,13,0,0,0-2.62,5.78c-.85,4.79-2.65,13.72-5.26,19.71-2,4.49,1.35,20.26,7.21,34.44,9.19,22.29,7.15,40.52-5.58,50a22.83,22.83,0,0,1-8,3.73,107.46,107.46,0,0,0,22.9-2.54c7.32-1.63,14-7.34,19.42-11.94,1.22-1,2.38-2,3.47-2.91a53.86,53.86,0,0,0,5.43-5.1c7.24-7.7,24.49-20.58,25.22-21.12l.1-.07c.24-.14,24-13.69,29.95-21.35,4.6-5.91,14-20.71,18.51-27.83,1.79-2.82,2.59-4.08,2.81-4.37a9.23,9.23,0,0,0,.72-5.3,3.37,3.37,0,0,0-1.44-2.37h0c-3.32-2-11.08-3.6-19.06,3.37s-13.9,13.29-16.18,17.2a7.35,7.35,0,0,1-1.86,2.08c-2,1.51-5,3.42-7.74,3.93l-1.77.32a165.81,165.81,0,0,0-17.11,3.76c-3.33,1-10.25-1.39-14.08-2.88-5.3-2.09-11.39-9-11.64-9.32l-.09-.12c-4.1-6.46-7.6-23.1-7.46-27,.28-7.87,1.16-12.9,2.69-15.35S119.63,115.48,119.05,97.24Z" transform="translate(-15.3 -28.05)"/></svg>